# xmcd
# 
# Track frame offsets:
#     150
#     27027
#     47525
#     71590
#     91962
#     117020
#     141330
#     165847
#     187487
#     215090
#     241312
# 
# Disc length: 3626
# 
# Revision: 6
# Processed by: cddbd v1.5.2PL0 Copyright (c) Steve Scherf et al.
# Submitted via: fre:ac v1.0.27
# 
DISCID=970e280b
DTITLE=TRF - WORKS THE BEST OF TRF - Disc 2
DYEAR=1998
DGENRE=JPop
TTITLE0=BRAVE STORY
TTITLE1=SILENT NIGHT
TTITLE2=masquerade
TTITLE3=Happening Here
TTITLE4=teens
TTITLE5=SEE THE SKY ~ 1999...月が地球にKISSをする～
TTITLE6=BRAND NEW TOMORROW
TTITLE7=BOY MEETS GIRL
TTITLE8=CRAZY GONNA CRAZY
TTITLE9=LEGEND OF WIND
TTITLE10=WORLD GROOVE
EXTD=YEAR: 1998
EXTT0=
EXTT1=
EXTT2=
EXTT3=
EXTT4=
EXTT5=
EXTT6=
EXTT7=
EXTT8=
EXTT9=
EXTT10=
PLAYORDER=
